<mxfile host="app.diagrams.net" modified="2024-05-14T19:04:15.407Z" agent="Mozilla/5.0 (Windows NT 10.0; Win64; x64) AppleWebKit/537.36 (KHTML, like Gecko) Chrome/124.0.0.0 Safari/537.36" version="24.4.0" etag="YY370_VIu5-tcfzHKD25" type="github">
  <diagram name="PÃ¡gina-1" id="j2LKrKEnD5xDvW71-L-y">
    <mxGraphModel>
      <root>
        <mxCell id="0" />
        <mxCell id="1" parent="0" />
      </root>
    </mxGraphModel>
  </diagram>
</mxfile>
